{
  "title": "Ice Age 3 Dawn Of The Dinosaurs (2009) DVDRip XviD-MAX",
  "uid": 5136371,
  "size": 733518280,
  "categoryP": "video",
  "categoryS": "movies",
  "magnet": "?xt=urn:btih:7824c00f053da3989d8671451df6a53da9609d4e&amp;dn=Ice+Age+3+Dawn+Of+The+Dinosaurs+%282009%29+DVDRip+XviD-MAX&amp;tr=udp%3A%2F%2Ftracker.openbittorrent.com%3A80&amp;tr=udp%3A%2F%2Fopen.demonii.com%3A1337&amp;tr=udp%3A%2F%2Ftracker.coppersurfer.tk%3A6969&amp;tr=udp%3A%2F%2Fexodus.desync.com%3A6969",
  "seeders": 38,
  "leechers": 1,
  "uploader": "extremezone",
  "files": -1,
  "time": 1256508548,
  "description": "Ice Age 3 Dawn Of The Dinosaurs (2009) DVDRip XviD-MAX\n\nFormat                           : AVI\nFormat/Info                      : Audio Video Interleave\nFile size                        : 699 MiB\nDuration                         : 1h 30mn\nOverall bit rate                 : 1 084 Kbps\nWriting application              : VirtualDubMod 1.5.10.2 (build 2540/release)\nWriting library                  : VirtualDubMod build 2540/release\nOriginal source form             : MAX TORRENTZ\nCopyright                        : SIGISMUNT\n\nVideo\nFormat                           : MPEG-4 Visual\nFormat profile                   : Streaming Video[@]L1\nFormat settings, BVOP            : Yes\nFormat settings, QPel            : No\nFormat settings, GMC             : No warppoints\nFormat settings, Matrix          : Default (H.263)\nCodec ID                         : XVID\nCodec ID/Hint                    : XviD\nDuration                         : 1h 30mn\nBit rate                         : 947 Kbps\nWidth                            : 640 pixels\nHeight                           : 352 pixels\nDisplay aspect ratio             : 16/9\nFrame rate                       : 25.000 fps\nResolution                       : 24 bits\nColorimetry                      : 4:2:0\nScan type                        : Progressive\nBits/(Pixel*Frame)               : 0.168\nStream size                      : 611 MiB (87%)\nWriting library                  : XviD 1.1.2 (UTC 2006-11-01)\n\nAudio\nFormat                           : MPEG Audio\nFormat version                   : Version 1\nFormat profile                   : Layer 3\nCodec ID                         : 55\nCodec ID/Hint                    : MP3\nDuration                         : 1h 30mn\nBit rate mode                    : Variable\nBit rate                         : 124 Kbps\nChannel(s)                       : 2 channels\nSampling rate                    : 48.0 KHz\nResolution                       : 16 bits\nStream size                      : 80.3 MiB (11%)\nAlignment                        : Aligned on interleaves\nInterleave, duration             : 24 ms (0.60 video frame)\nInterleave, preload duration     : 154 ms\n\nScreens:  &lt;a href=&quot;\nhttp://www.postimg.com/image/6000/5383.jpg&quot; rel=&quot;nofollow&quot; target=&quot;_NEW&quot;&gt;\nhttp://www.postimg.com/image/6000/5383.jpg&lt;/a&gt;  &lt;a href=&quot;\nhttp://www.postimg.com/image/6000/5384.jpg&quot; rel=&quot;nofollow&quot; target=&quot;_NEW&quot;&gt;\nhttp://www.postimg.com/image/6000/5384.jpg&lt;/a&gt;  &lt;a href=&quot;\nhttp://www.postimg.com/image/6000/5385.jpg&quot; rel=&quot;nofollow&quot; target=&quot;_NEW&quot;&gt;\nhttp://www.postimg.com/image/6000/5385.jpg&lt;/a&gt;  &lt;a href=&quot;\nhttp://www.postimg.com/image/6000/5387.jpg&quot; rel=&quot;nofollow&quot; target=&quot;_NEW&quot;&gt;\nhttp://www.postimg.com/image/6000/5387.jpg&lt;/a&gt;  &lt;a href=&quot;\nhttp://www.postimg.com/image/6000/5382.jpg&quot; rel=&quot;nofollow&quot; target=&quot;_NEW&quot;&gt;\nhttp://www.postimg.com/image/6000/5382.jpg&lt;/a&gt;\n\nScreenCaps:\n &lt;a href=&quot;\nhttp://www.postimg.com/image/6000/5397.jpg&quot; rel=&quot;nofollow&quot; target=&quot;_NEW&quot;&gt;\nhttp://www.postimg.com/image/6000/5397.jpg&lt;/a&gt; &lt;a href=&quot;\nhttp://thepiratebay.se/user/extremezone/0/7&quot; rel=&quot;nofollow&quot; target=&quot;_NEW&quot;&gt;\nhttp://thepiratebay.se/user/extremezone/0/7&lt;/a&gt;",
  "parsed": {
    "xt": "urn:btih:7824c00f053da3989d8671451df6a53da9609d4e",
    "dn": "Ice Age 3 Dawn Of The Dinosaurs (2009) DVDRip XviD-MAX",
    "tr": [
      "udp://exodus.desync.com:6969",
      "udp://open.demonii.com:1337",
      "udp://tracker.coppersurfer.tk:6969",
      "udp://tracker.openbittorrent.com:80"
    ],
    "infoHash": "7824c00f053da3989d8671451df6a53da9609d4e",
    "infoHashBuffer": {
      "type": "Buffer",
      "data": [
        120,
        36,
        192,
        15,
        5,
        61,
        163,
        152,
        157,
        134,
        113,
        69,
        29,
        246,
        165,
        61,
        169,
        96,
        157,
        78
      ]
    },
    "name": "Ice Age 3 Dawn Of The Dinosaurs (2009) DVDRip XviD-MAX",
    "announce": [
      "udp://exodus.desync.com:6969",
      "udp://open.demonii.com:1337",
      "udp://tracker.coppersurfer.tk:6969",
      "udp://tracker.openbittorrent.com:80"
    ],
    "urlList": []
  },
  "previous": 4,
  "peers": 40,
  "last_updated": "2016-12-27T04:24:23.752Z"
}